REM DIRINDEX 1
REM DIRNAME folder01
TITLE ""
FILE "Disk2Track62.mp3" MP3
  TRACK 01 AUDIO
    TITLE "1:cjc069_0880"
    INDEX 01 00:00:00
  TRACK 02 AUDIO
    TITLE "1:cjc069_0881"
    INDEX 01 00:11:03
  TRACK 03 AUDIO
    TITLE "1:cjc069_0882"
    INDEX 01 00:18:64
  TRACK 04 AUDIO
    TITLE "1:cjc069_0883"
    INDEX 01 00:33:11
  TRACK 05 AUDIO
    TITLE "1:cjc069_0884"
    INDEX 01 00:41:71
  TRACK 06 AUDIO
    TITLE "0:"
    INDEX 01 00:50:72
